<svg version="1.1" class="logo" width="401" height="90" id="Calque_1" xmlns="http://www.w3.org/2000/svg" xmlns:xlink="http://www.w3.org/1999/xlink" viewBox="0 0 655.4 229.32" style="enable-background:new 0 0 655.4 229.32;" xml:space="preserve" transform="translate(-45, 0)"> <g> <path d="M729.94,156.14h-13.55V115.7c0-11.94-5.23-20.08-19.36-20.08c-16.87,0-21.99,13.69-21.99,17.21c0,4.56,0,43.3,0,43.3
    h-13.78V59.63h13.78v35.07h0.25c0,0,6.72-11.08,24.47-11.08c16.87,0,30.19,9.43,30.19,27.55V156.14z"></path> <g> <path d="M280.36,225.69c-2.91,1.38-6.86,1.68-10.38,1.68c-4.19,0-8.44-0.2-13.14-0.51v-4.75c4.49,0.46,9.15,0.72,12.84,0.72
     c3.02,0,5.52-0.2,7.31-0.67c2.85-0.82,3.58-2.66,3.58-4.81c0-2.4-0.86-3.89-3.63-4.75c-2.61-0.76-5.07-1.13-8.33-1.69
     c-7.88-1.33-11.82-3.48-11.82-9.82c0-3.43,1.17-6.75,5.16-8.59c2.85-1.33,6.75-1.58,9.88-1.58c3.69,0,7.51,0.2,11.67,0.56v4.55
     c-4.1-0.46-8.29-0.72-11.76-0.72c-2.35,0-4.66,0.2-6.39,0.67c-2.76,0.82-3.47,2.4-3.47,4.49c0,2.29,0.82,3.73,3.47,4.55
     c2.4,0.71,5.07,1.12,8.03,1.58c8.07,1.28,12.32,3.52,12.32,10.23C285.67,220.37,284.44,223.79,280.36,225.69z"></path> <path d="M339.59,223.79c-4.04,2.81-9.41,3.58-15.71,3.58c-6.65,0-11.91-0.87-15.9-3.63c-4.49-3.17-6.3-8.33-6.3-14.63
     s1.79-11.46,6.3-14.63c3.99-2.81,9.37-3.58,15.65-3.58c6.65,0,11.91,0.87,15.96,3.63c4.45,3.17,6.24,8.33,6.24,14.63
     C345.82,215.52,344.03,220.63,339.59,223.79z M323.82,195.46c-11.72,0-16.62,3.43-16.62,13.5c0,9.71,4.77,13.92,16.47,13.92
     s16.62-3.43,16.62-13.55C340.3,199.66,335.54,195.46,323.82,195.46z"></path> <path d="M369.45,212.74v13.92h-5.31v-35.04h27.16v4.6h-21.84v12.08h19.7v4.45h-19.7V212.74z"></path> <path d="M421.26,226.66v-30.53h-15.49v-4.51h36.31v4.51h-15.5v30.53H421.26z"></path> <path d="M496.4,226.66l-11.11-28.13h-0.2l-10.85,28.13h-5.74l-14.06-35.04h5.83l11.15,28.85h0.26l10.89-28.85h5.72l10.9,28.85
     h0.26l11.09-28.85h5.63l-14.07,35.04H496.4z"></path> <path d="M559.1,226.66l-4.86-9.47h-20.82l-4.81,9.47h-5.78l18.15-35.04h5.93l18.15,35.04H559.1z M543.91,196.79h-0.2l-8.24,16.16
     h16.68L543.91,196.79z"></path> <path d="M608.25,226.66l-10.44-13.4c-1.08,0.1-2.2,0.1-3.33,0.1h-7.83v13.31h-5.31v-35.04h13.92c6.86,0,11.46,0.26,14.74,2.72
     c2.4,1.79,3.47,4.45,3.47,7.98c0,3.37-0.92,5.93-3.32,7.83c-1.53,1.33-3.69,2.1-6.28,2.55l10.94,13.96L608.25,226.66
     L608.25,226.66z M595.67,195.93h-9v13.3h9.06c8.03,0,12.32-0.87,12.32-6.75C608.05,196.43,603.15,195.93,595.67,195.93z"></path> <path d="M633.68,226.66v-35.04h26.28v4.51h-20.97v10.44h19.44v4.23h-19.44v11.35h21.84v4.49h-27.16V226.66z"></path> </g> <g> <path d="M180.13,206.51c-1.05,0.7-2.32,1.49-3.48,2.16l-0.36,0.2l0.36,0.04c22.77,6.26,45.32,6.01,49.65-8.2
     c5.6-18.35-30.63-38.03-47.74-47.41c-3.66-2.01-5.26-0.75-2.91,1.93C186.46,167.69,201.84,192.14,180.13,206.51z"></path> <path d="M176.32,208.88c0,0-28.67,18.03-79.28,18.03c-19.6,0-36.12-3.01-43.1-9.88c-7.35-7.24-11.34-19.41-11.34-30.61
     c0-9.6,3.99-17.68,12.29-17.68C76.23,168.74,142.7,202.55,176.32,208.88z"></path> <g> <path d="M80.75,104.36c1.05-0.7,2.32-1.49,3.48-2.16l0.36-0.2l-0.36-0.04c-22.77-6.26-45.32-6.02-49.65,8.2
      c-5.6,18.35,30.63,38.03,47.73,47.4c3.66,2.01,5.26,0.75,2.92-1.94C74.44,143.19,59.06,118.73,80.75,104.36z"></path> <path d="M84.56,102c0,0,28.67-18.02,79.28-18.02c19.6,0,36.12,3.01,43.1,9.88c7.35,7.23,11.34,19.41,11.34,30.61
      c0,9.6-3.99,17.66-12.29,17.66C184.65,142.13,118.18,108.33,84.56,102z"></path> </g> </g> <path d="M456.48,95.74c-13.21,0-24.79,7.49-24.79,23.82s10.19,24.52,24.66,24.52c7.57,0,23.56-3.07,23.56-24.23
    C479.89,98.69,463.95,95.74,456.48,95.74z M457.19,156.14c-17.06,0-25.52-10.85-25.52-10.85v30.01h-13.14V84.77h12.43l0.71,8.85
    c0,0,8.28-9.79,25.37-9.79c15.04,0,36.69,7.66,36.69,35.87C493.73,147.93,474.25,156.14,457.19,156.14z"></path> <path d="M558.78,119.85c0,19.4,15.98,24.23,23.56,24.23c14.45,0,24.66-8.17,24.66-24.52s-11.6-23.82-24.79-23.82
    C574.7,95.74,558.78,100.14,558.78,119.85z M544.94,119.7c0-26.79,21.65-35.89,36.69-35.89c17.08,0,25.35,9.79,25.35,9.79
    l0.71-8.85h12.44v71.36h-12.4L607,146.7c0,0-8.51,9.44-25.52,9.44C564.42,156.14,544.94,146.23,544.94,119.7z"></path> <path d="M545.94,97.07V85.01c-13.44-1.23-22.88,1.99-30.23,9.67l-0.7-9.82h-12.92v71.28h13.62v-36.92
    C515.69,108.91,524.01,95.84,545.94,97.07z"></path> <path d="M298.7,113.57c-13.7-2.45-27.17-4.15-27.17-10.55c0-4.17,4.13-7.83,16.12-7.83c8.92,0,19.19,2.06,21.99,8.37l12.64-5.31
    c-4.84-9.71-19.14-14.38-35.57-14.38c-14.37,0-29.79,5.44-29.79,19.98c0,12.59,11.46,16.52,30.38,20.07
    c12.62,2.38,24.27,3.58,24.27,10.4c0,4.3-5.74,9.81-20.05,9.81c-10.19,0-20.45-2.13-23.59-9.38l-12.24,5.14
    c5.01,11.2,18.35,16.98,33.8,16.98c30.83,0,36.8-14.67,36.8-23C326.27,120,312.47,116.03,298.7,113.57z"></path> <path d="M371.48,83.83c-18.21,0-39.76,9.1-39.76,35.89c0,26.53,19.4,36.83,39.76,36.83c20.38,0,39.76-10.3,39.76-36.83
    C411.25,92.93,389.69,83.83,371.48,83.83z M371.48,144.09c-11.19,0-25.93-4.84-25.93-24.23c0-19.71,16.35-23.71,25.93-23.71
    c9.59,0,25.93,4,25.93,23.71C397.42,139.25,382.68,144.09,371.48,144.09z"></path> <path d="M786,97.07V85.01c-13.44-1.23-22.88,1.99-30.23,9.67l-0.7-9.82h-12.92v71.28h13.62v-36.92
    C755.77,108.91,764.08,95.84,786,97.07z"></path> </g> <defs> <clipPath id="clip0"> <rect width="201" height="45" fill="#000"></rect> </clipPath> </defs> </svg>